<svg xmlns="http://www.w3.org/2000/svg" width="28.671" height="23.256" viewBox="0 0 28.671 23.256">
  <path id="Path_11681" data-name="Path 11681" d="M47.079,25.256c10.831,0,16.725-8.92,16.725-16.725v-.8a12.947,12.947,0,0,0,2.867-3.026,13.223,13.223,0,0,1-3.345.956,6.2,6.2,0,0,0,2.549-3.186,14.61,14.61,0,0,1-3.664,1.434A5.689,5.689,0,0,0,57.911,2a5.985,5.985,0,0,0-5.894,5.894,3.106,3.106,0,0,0,.159,1.274A16.468,16.468,0,0,1,40.071,2.956a6.1,6.1,0,0,0-.8,3.026,6.329,6.329,0,0,0,2.549,4.938,5.37,5.37,0,0,1-2.708-.8h0a5.821,5.821,0,0,0,4.779,5.734,4.911,4.911,0,0,1-1.593.159,2.711,2.711,0,0,1-1.115-.159A6.034,6.034,0,0,0,46.761,20a12.026,12.026,0,0,1-7.327,2.549A4.41,4.41,0,0,1,38,22.389a15.035,15.035,0,0,0,9.079,2.867" transform="translate(-38 -2)" fill="#fff" fill-rule="evenodd"/>
</svg>
