<svg xmlns="http://www.w3.org/2000/svg" width="28.671" height="28.671" viewBox="0 0 28.671 28.671">
  <path id="Path_40" data-name="Path 40" d="M14.336,2.549a43.956,43.956,0,0,1,5.734.159,7.388,7.388,0,0,1,2.708.478,5.594,5.594,0,0,1,2.708,2.708A7.388,7.388,0,0,1,25.964,8.6c0,1.434.159,1.911.159,5.734a43.956,43.956,0,0,1-.159,5.734,7.388,7.388,0,0,1-.478,2.708,5.594,5.594,0,0,1-2.708,2.708,7.388,7.388,0,0,1-2.708.478c-1.434,0-1.911.159-5.734.159A43.955,43.955,0,0,1,8.6,25.964a7.388,7.388,0,0,1-2.708-.478,5.594,5.594,0,0,1-2.708-2.708,7.388,7.388,0,0,1-.478-2.708c0-1.434-.159-1.911-.159-5.734A43.956,43.956,0,0,1,2.708,8.6a7.388,7.388,0,0,1,.478-2.708A5.721,5.721,0,0,1,4.3,4.3,2.693,2.693,0,0,1,5.894,3.186,7.388,7.388,0,0,1,8.6,2.708a43.956,43.956,0,0,1,5.734-.159m0-2.549A47.064,47.064,0,0,0,8.442.159,9.834,9.834,0,0,0,4.938.8,6.236,6.236,0,0,0,2.389,2.389,6.236,6.236,0,0,0,.8,4.938a7.258,7.258,0,0,0-.637,3.5A47.064,47.064,0,0,0,0,14.336a47.064,47.064,0,0,0,.159,5.894,9.834,9.834,0,0,0,.637,3.5,6.236,6.236,0,0,0,1.593,2.549,6.236,6.236,0,0,0,2.549,1.593,9.834,9.834,0,0,0,3.5.637,47.064,47.064,0,0,0,5.894.159,47.064,47.064,0,0,0,5.894-.159,9.834,9.834,0,0,0,3.5-.637,6.683,6.683,0,0,0,4.141-4.141,9.834,9.834,0,0,0,.637-3.5c0-1.593.159-2.071.159-5.894a47.064,47.064,0,0,0-.159-5.894,9.834,9.834,0,0,0-.637-3.5,6.236,6.236,0,0,0-1.593-2.549A6.236,6.236,0,0,0,23.734.8a9.834,9.834,0,0,0-3.5-.637A47.064,47.064,0,0,0,14.336,0m0,7.009a7.209,7.209,0,0,0-7.327,7.327,7.327,7.327,0,1,0,7.327-7.327m0,12.106a4.693,4.693,0,0,1-4.779-4.779,4.693,4.693,0,0,1,4.779-4.779,4.693,4.693,0,0,1,4.779,4.779,4.693,4.693,0,0,1-4.779,4.779M21.981,4.938A1.752,1.752,0,1,0,23.734,6.69a1.768,1.768,0,0,0-1.752-1.752" fill="#fff" fill-rule="evenodd"/>
</svg>
